<?xml version="1.0" standalone="no"?>
<!DOCTYPE svg PUBLIC "-//W3C//DTD SVG 20010904//EN"
 "http://www.w3.org/TR/2001/REC-SVG-20010904/DTD/svg10.dtd">
<svg version="1.0" xmlns="http://www.w3.org/2000/svg"
 width="320.000000pt" height="320.000000pt" viewBox="0 0 320.000000 320.000000"
 preserveAspectRatio="xMidYMid meet">
<metadata>
Created by potrace 1.11, written by Peter Selinger 2001-2013
</metadata>
<g transform="translate(0.000000,320.000000) scale(0.100000,-0.100000)"
fill="#000000" stroke="none">
<path d="M0 1600 l0 -1600 512 0 c452 0 510 2 492 15 -17 13 -17 14 -1 15 21
0 23 20 2 20 -11 0 -15 12 -15 45 0 35 3 43 15 39 8 -4 15 -1 15 5 0 6 -8 11
-18 11 -11 0 -18 8 -19 22 -2 17 7 28 31 40 32 15 34 15 50 -3 17 -20 21 -39
8 -39 -4 0 -7 -12 -7 -27 1 -19 10 -32 26 -40 29 -15 38 0 15 23 -20 19 -20
28 -1 44 8 7 12 17 8 24 -4 6 -6 18 -5 27 1 8 -16 30 -38 48 -22 18 -37 37
-34 43 4 6 3 8 -4 5 -5 -4 -8 -15 -5 -26 3 -12 -2 -21 -14 -25 -10 -3 -24 -9
-31 -12 -6 -3 -12 -1 -12 5 0 6 7 11 15 11 8 0 15 5 15 11 0 6 -6 9 -14 6 -9
-4 -16 4 -20 25 -9 48 -8 52 24 66 35 16 38 27 9 42 -22 13 -42 4 -21 -9 10
-6 10 -11 -3 -21 -8 -7 -15 -9 -15 -4 0 5 -4 36 -10 69 -5 33 -11 75 -12 93
-2 33 -18 46 -18 14 0 -10 -6 -26 -13 -37 -13 -17 -15 -17 -35 3 -12 12 -28
22 -36 22 -20 0 -91 -74 -110 -115 -9 -19 -19 -35 -22 -35 -14 0 -64 43 -64
54 0 7 9 21 20 31 25 22 28 60 4 51 -9 -3 -18 -6 -20 -6 -2 0 -4 -8 -5 -17 -2
-28 -17 27 -18 65 -1 36 -21 45 -21 10 0 -33 -11 -68 -21 -68 -17 0 -49 35
-49 53 0 10 -5 27 -10 38 -9 15 -5 30 17 71 15 28 37 56 48 63 28 18 155 59
245 80 85 19 149 44 168 67 7 9 88 47 180 85 150 61 172 73 219 120 30 31 56
68 62 88 10 38 47 95 62 95 18 0 8 -35 -18 -62 -42 -44 -37 -102 16 -207 58
-114 145 -247 171 -261 15 -8 49 -9 105 -5 75 6 89 5 129 -15 25 -12 56 -34
69 -50 l24 -28 44 53 c24 29 55 60 69 70 l25 16 -27 -5 c-22 -5 -25 -3 -21 13
3 13 -2 20 -21 25 -22 5 -26 12 -26 45 0 55 -8 71 -36 71 -40 0 -32 53 22 140
26 41 51 78 57 82 5 3 36 6 68 6 32 0 76 3 97 7 39 6 41 5 57 -29 9 -19 22
-39 28 -44 31 -23 253 -94 332 -106 76 -11 117 -28 157 -64 49 -44 93 -130
102 -199 4 -29 13 -71 21 -94 8 -23 15 -53 15 -68 0 -14 9 -55 20 -89 11 -35
20 -81 20 -103 0 -22 4 -47 10 -57 24 -42 43 -113 49 -182 4 -41 13 -90 20
-107 12 -30 17 -33 57 -33 l44 0 0 1600 0 1600 -1600 0 -1599 0 -1 -1600z
m1657 1544 c-3 -3 -12 -4 -19 -1 -8 3 -5 6 6 6 11 1 17 -2 13 -5z m-257 -678
c0 -3 -4 -8 -10 -11 -5 -3 -10 -1 -10 4 0 6 5 11 10 11 6 0 10 -2 10 -4z m955
-268 c10 -29 31 -77 46 -106 32 -60 29 -76 -13 -98 -52 -27 -65 -105 -23 -150
14 -15 29 -42 34 -60 5 -19 19 -46 30 -60 22 -28 29 -74 11 -74 -5 0 -10 5
-10 11 0 6 -14 22 -31 36 -18 16 -28 32 -24 41 3 8 -8 39 -25 68 -23 41 -30
66 -30 105 0 57 -16 78 -58 79 -30 0 -82 36 -82 56 0 8 6 17 14 20 17 6 30 72
27 127 -1 20 2 37 7 37 8 0 22 33 21 50 0 3 10 8 23 11 31 9 61 -25 83 -93z
m-2257 60 c-3 -7 -13 -13 -23 -13 -10 0 -20 6 -22 13 -3 7 5 12 22 12 17 0 25
-5 23 -12z m-33 -238 c0 -16 -6 -26 -19 -28 -23 -5 -35 13 -28 40 7 30 47 20
47 -12z m37 -130 c5 0 8 -10 6 -22 -2 -17 -11 -24 -30 -26 -24 -3 -28 0 -28
21 0 29 9 39 28 32 7 -3 18 -5 24 -5z m693 -90 c3 -5 1 -10 -4 -10 -6 0 -11 5
-11 10 0 6 2 10 4 10 3 0 8 -4 11 -10z m-555 -195 c0 -8 -7 -15 -15 -15 -8 0
-15 7 -15 15 0 8 7 15 15 15 8 0 15 -7 15 -15z m2137 -222 c-3 -10 -5 -4 -5
12 0 17 2 24 5 18 2 -7 2 -21 0 -30z m-2081 -8 c18 -14 18 -14 -7 -15 -15 0
-29 7 -33 15 -7 19 14 19 40 0z"/>
<path d="M2160 1115 c0 -17 6 -39 14 -50 14 -21 27 -58 46 -134 14 -55 30 -39
30 32 0 55 -17 95 -60 147 l-29 35 -1 -30z"/>
<path d="M2346 891 c-4 -5 -2 -12 3 -15 5 -4 12 -2 15 3 4 5 2 12 -3 15 -5 4
-12 2 -15 -3z"/>
<path d="M2377 804 c-14 -15 -6 -33 24 -55 l31 -22 -7 24 c-9 29 -39 62 -48
53z"/>
<path d="M1565 759 c-9 -13 -9 -13 38 -26 44 -13 48 -4 8 20 -34 20 -38 20
-46 6z"/>
<path d="M1362 755 c-3 -15 -32 -248 -32 -257 0 -4 -7 -8 -16 -8 -8 0 -12 -5
-9 -10 4 -6 11 -8 16 -4 6 3 9 -12 8 -39 -2 -35 -6 -43 -19 -40 -9 2 -17 16
-18 30 -2 31 -13 44 -20 24 -2 -7 -13 -22 -23 -32 -11 -11 -14 -19 -9 -19 12
0 13 -53 1 -100 -5 -19 -12 -47 -15 -62 -4 -16 -10 -27 -14 -27 -26 4 -32 -4
-32 -48 0 -29 -6 -53 -17 -65 -15 -16 -15 -18 0 -18 18 0 13 -25 -10 -48 -7
-7 -13 -18 -13 -23 0 -6 149 -8 413 -5 423 5 457 6 457 18 0 4 10 17 22 28
l23 21 -24 19 c-17 12 -31 16 -46 10 -11 -4 -71 -16 -133 -25 -61 -10 -110
-21 -107 -25 12 -19 -257 -22 -355 -3 -19 3 -38 7 -42 7 -23 3 -15 17 20 35
28 14 41 28 45 48 6 34 2 43 -23 43 -27 0 -31 12 -19 56 14 50 28 64 67 67 35
2 45 17 12 17 -11 0 -20 5 -20 10 0 6 -6 10 -13 10 -7 0 -22 6 -32 14 -18 13
-18 15 -1 60 11 27 15 57 11 74 -4 22 0 33 21 51 l26 23 -33 21 -34 22 33 3
c18 2 39 -2 46 -7 8 -6 21 -9 30 -5 12 5 15 2 10 -11 -5 -13 -2 -16 17 -13 15
2 23 -2 22 -9 -2 -8 7 -13 22 -13 14 0 28 -7 31 -15 4 -8 12 -15 19 -15 7 0
15 -5 17 -11 2 -6 31 -13 64 -16 61 -5 72 -16 51 -50 -4 -6 4 -13 20 -18 21
-5 63 -39 63 -51 0 -1 -16 -2 -35 -1 -29 1 -34 4 -29 19 4 13 0 18 -16 18 -12
0 -19 -4 -15 -9 3 -5 1 -12 -5 -16 -5 -3 -10 0 -10 7 0 7 -5 5 -11 -6 -9 -15
-13 -16 -20 -5 -6 10 -10 7 -17 -11 -6 -16 -5 -31 2 -43 9 -15 12 -15 14 -2 5
21 21 19 43 -6 11 -13 25 -19 34 -15 13 4 15 1 10 -13 -5 -16 0 -20 21 -23 37
-4 42 -26 7 -34 -15 -4 -31 -12 -35 -18 -5 -7 -8 -4 -8 7 0 9 -4 17 -10 17 -5
0 -10 -4 -10 -10 0 -5 -9 -10 -20 -10 -11 0 -23 -6 -26 -14 -3 -7 -27 -16 -53
-20 -43 -6 -48 -9 -48 -31 0 -30 14 -36 62 -25 21 5 44 6 51 3 8 -3 14 0 14 6
0 8 5 9 19 1 25 -13 27 -13 45 6 14 13 16 13 16 1 0 -19 28 -25 125 -28 78 -2
80 -1 79 22 -1 13 5 29 12 37 8 7 14 18 14 23 0 13 -18 11 -23 -3 -16 -43 -62
96 -71 212 -9 113 -11 118 -41 112 -14 -2 -25 -9 -25 -16 0 -12 -20 14 -20 27
0 4 14 13 30 19 25 8 29 14 24 32 -8 25 -34 66 -43 67 -3 0 -34 2 -69 3 -39 2
-69 9 -80 19 -12 11 -22 13 -35 6 -12 -7 -22 -7 -30 -1 -7 5 -36 17 -66 25
l-55 16 -61 -35 c-34 -18 -67 -34 -73 -34 -6 0 -13 24 -15 58 -2 31 -4 53 -5
47z"/>
<path d="M2575 741 c-25 -7 -30 -34 -10 -51 12 -10 15 -10 15 4 0 9 3 16 8 16
15 -1 77 -59 69 -66 -4 -4 -15 1 -26 10 -15 13 -20 14 -23 4 -4 -10 -13 -9
-42 5 -46 21 -46 21 -46 -2 0 -34 12 -51 35 -51 13 0 40 -16 61 -35 46 -44 61
-36 29 15 -14 22 -21 40 -16 40 6 0 13 -5 16 -11 4 -6 13 -8 20 -6 14 6 18
-70 4 -79 -19 -11 -7 -56 30 -113 21 -34 41 -71 44 -83 3 -13 11 -50 18 -83
10 -48 14 -55 18 -36 8 32 31 39 38 12 6 -24 23 -28 23 -6 0 8 -4 15 -10 15
-5 0 -10 15 -10 34 0 19 -4 38 -10 41 -5 3 -10 14 -10 23 0 9 -7 29 -14 44 -8
16 -14 47 -14 70 0 38 2 40 14 23 8 -10 14 -29 14 -43 0 -13 4 -20 10 -17 6 3
10 24 10 45 0 37 1 38 40 45 43 7 45 25 3 25 -26 0 -26 0 -7 21 l19 22 -33 -5
c-38 -5 -57 18 -29 34 23 13 22 48 -1 48 -25 0 -34 -11 -22 -25 8 -10 2 -16
-21 -24 -41 -14 -51 -5 -20 20 18 15 21 22 12 33 -7 8 -10 19 -9 26 2 7 -3 15
-9 17 -7 3 -13 0 -13 -6 0 -6 -7 -8 -16 -4 -12 4 -14 0 -8 -22 9 -35 -10 -26
-31 14 -18 35 -73 69 -100 62z"/>
<path d="M2450 693 c0 -23 4 -44 9 -47 5 -4 43 -76 85 -161 41 -85 78 -155 80
-155 6 0 -30 99 -78 215 -19 44 -39 94 -45 110 -6 17 -20 41 -31 55 l-20 25 0
-42z"/>
<path d="M1740 710 c-23 -7 -21 -8 18 -15 31 -6 40 -10 30 -17 -9 -7 -4 -8 15
-5 27 4 61 -1 117 -17 14 -4 0 8 -30 28 -55 37 -94 43 -150 26z"/>
<path d="M2551 584 c0 -11 3 -14 6 -6 3 7 2 16 -1 19 -3 4 -6 -2 -5 -13z"/>
<path d="M2914 494 c4 -11 2 -15 -8 -11 -11 4 -12 0 -5 -21 4 -15 12 -43 16
-62 7 -26 15 -36 32 -38 23 -4 24 -2 17 39 -8 52 -25 76 -38 57 -6 -8 -7 -1
-3 20 5 22 3 32 -5 32 -7 0 -10 -7 -6 -16z"/>
<path d="M1232 488 c3 -7 13 -15 24 -17 16 -3 17 -1 5 13 -16 19 -34 21 -29 4z"/>
<path d="M1047 466 c-4 -10 -5 -21 -2 -24 9 -9 17 6 13 25 -3 17 -4 17 -11 -1z"/>
<path d="M1015 460 c-3 -5 -16 -10 -28 -10 -20 0 -19 -2 7 -15 39 -20 44 -19
42 10 -1 26 -10 32 -21 15z"/>
<path d="M975 350 c-3 -5 -1 -10 4 -10 6 0 11 5 11 10 0 6 -2 10 -4 10 -3 0
-8 -4 -11 -10z"/>
<path d="M1588 352 c-10 -2 -18 -10 -18 -17 0 -8 -8 -19 -17 -24 -16 -9 -16
-10 -1 -11 9 0 23 7 32 15 8 9 17 15 18 13 2 -1 11 3 22 9 18 10 18 10 0 15
-11 2 -27 2 -36 0z"/>
<path d="M2645 246 c-31 -17 -34 -26 -19 -55 8 -14 14 -32 14 -39 0 -7 6 -19
13 -27 7 -7 19 -38 26 -69 12 -52 15 -56 41 -56 33 0 33 -5 -11 140 -36 117
-38 121 -64 106z"/>
<path d="M2180 240 c-9 -6 -10 -10 -3 -10 6 0 15 5 18 10 8 12 4 12 -15 0z"/>
<path d="M2967 220 c-10 -48 -9 -52 13 -40 23 12 25 29 7 55 -13 17 -14 16
-20 -15z"/>
<path d="M2330 223 c-8 -3 -29 -12 -47 -20 -17 -8 -40 -16 -50 -18 -10 -2 -20
-4 -23 -5 -3 -1 -9 -2 -13 -1 -5 1 -6 -8 -3 -19 3 -11 9 -29 12 -40 8 -29 64
-29 64 0 0 17 5 19 25 14 14 -3 25 -2 25 4 0 5 10 12 23 16 31 8 80 53 72 65
-6 11 -59 14 -85 4z"/>
<path d="M1486 172 c-3 -5 -17 -8 -32 -6 -17 2 -24 -2 -21 -11 3 -7 0 -18 -6
-24 -8 -8 -8 -11 0 -11 7 0 14 4 17 8 3 5 20 8 38 7 18 0 36 3 39 7 3 4 17 9
31 10 14 1 24 7 22 13 -6 14 -54 18 -54 4 0 -8 -4 -8 -14 0 -8 7 -17 8 -20 3z"/>
<path d="M2985 162 c-5 -4 -16 -18 -23 -31 -13 -22 -12 -23 3 -17 15 5 16 4 5
-9 -7 -8 -10 -25 -6 -39 4 -15 0 -28 -9 -36 -11 -9 -15 -5 -21 24 -3 20 -11
36 -16 36 -6 0 -7 -9 -3 -22 3 -13 9 -33 12 -45 5 -21 11 -23 69 -23 49 0 64
3 64 14 0 8 3 23 6 33 5 16 4 16 -11 -2 -13 -17 -17 -18 -25 -5 -5 8 -12 41
-16 73 -7 57 -10 63 -29 49z"/>
<path d="M3030 150 c0 -5 4 -10 9 -10 6 0 13 5 16 10 3 6 -1 10 -9 10 -9 0
-16 -4 -16 -10z"/>
<path d="M1015 80 c-3 -5 -1 -10 4 -10 6 0 11 5 11 10 0 6 -2 10 -4 10 -3 0
-8 -4 -11 -10z"/>
</g>
</svg>
